ffmpeg started on 2025-05-24 at 15:54:01
Report written to "D:\Convert\FFMetrics\reports\psnr_report-6.txt"
Log level: 32
Command line:
ffmpeg -hide_banner -nostdin -i "G:\\\xc0\xed\xe8\xec\xe5\\\xce\xed\xe3\xee\xe8\xed\xe3\xe8\\!_33_\xc7\xe8\xec\xe0_2024\\DreamCast\\\xd1\xf2\xe0\xed\xee\xe2\xff\xf1\xfc \xe2\xee\xeb\xf8\xe5\xe1\xed\xe8\xf6\xe5\xe9\\[DC] Mahou Shoujo ni Akogarete - 13_Telegram_HEVC.mkv" -i "G:\\\xc0\xed\xe8\xec\xe5\\\xce\xed\xe3\xee\xe8\xed\xe3\xe8\\!_33_\xc7\xe8\xec\xe0_2024\\DreamCast\\\xd1\xf2\xe0\xed\xee\xe2\xff\xf1\xfc \xe2\xee\xeb\xf8\xe5\xe1\xed\xe8\xf6\xe5\xe9\\[DC] Mahou Shoujo ni Akogarete - 13_Telegram.mp4" -lavfi "[0:v]settb=AVTB,setpts=PTS-STARTPTS,format=pix_fmts=yuv420p10,fps=24000/1001,scale=1920:1080:flags=bicubic[main];[1:v]settb=AVTB,setpts=PTS-STARTPTS,format=pix_fmts=yuv420p,fps=24000/1001,scale=1920:1080:flags=bicubic[ref];[main][ref]psnr=eof_action=endall:stats_file='D\\:/Convert/FFMetrics/logs/psnr_logfile-6.txt'" -f null -
Input #0, matroska,webm, from 'G:\Аниме\Онгоинги\!_33_Зима_2024\DreamCast\Становясь волшебницей\[DC] Mahou Shoujo ni Akogarete - 13_Telegram_HEVC.mkv':
  Metadata:
    COMPATIBLE_BRANDS: isomiso2avc1mp41
    MAJOR_BRAND     : isom
    MINOR_VERSION   : 512
    ENCODER         : Lavf61.7.100
  Duration: 00:24:01.67, start: -0.021000, bitrate: 1341 kb/s
  Stream #0:0: Video: hevc (Main 10), yuv420p10le(tv, bt709, progressive), 1920x1080 [SAR 1:1 DAR 16:9], 23.98 fps, 23.98 tbr, 1k tbn (default)
      Metadata:
        HANDLER_NAME    : VideoHandler
        VENDOR_ID       : [0][0][0][0]
        ENCODER         : Lavc61.19.100 libx265
        BPS             : 1144677
        DURATION        : 00:24:01.523708333
        NUMBER_OF_FRAMES: 34562
        NUMBER_OF_BYTES : 206259833
        _STATISTICS_WRITING_APP: mkvpropedit v66.0.0 ('Josie') 64-bit
        _STATISTICS_WRITING_DATE_UTC: 2025-05-24 11:20:15
        _STATISTICS_TAGS: BPS DURATION NUMBER_OF_FRAMES NUMBER_OF_BYTES
  Stream #0:1: Audio: aac (LC), 48000 Hz, stereo, fltp (default)
      Metadata:
        HANDLER_NAME    : SoundHandler
        VENDOR_ID       : [0][0][0][0]
        ENCODER         : Lavc61.19.100 aac
        BPS             : 192790
        DURATION        : 00:24:01.664000000
        NUMBER_OF_FRAMES: 67579
        NUMBER_OF_BYTES : 34742451
        _STATISTICS_WRITING_APP: mkvpropedit v66.0.0 ('Josie') 64-bit
        _STATISTICS_WRITING_DATE_UTC: 2025-05-24 11:20:15
        _STATISTICS_TAGS: BPS DURATION NUMBER_OF_FRAMES NUMBER_OF_BYTES
Input #1, mov,mp4,m4a,3gp,3g2,mj2, from 'G:\Аниме\Онгоинги\!_33_Зима_2024\DreamCast\Становясь волшебницей\[DC] Mahou Shoujo ni Akogarete - 13_Telegram.mp4':
  Metadata:
    major_brand     : isom
    minor_version   : 512
    compatible_brands: isomiso2avc1mp41
    encoder         : Lavf60.16.100
  Duration: 00:24:01.63, start: 0.000000, bitrate: 3916 kb/s
  Stream #1:0[0x1](und): Video: h264 (High) (avc1 / 0x31637661), yuv420p(tv, bt709, progressive), 1920x1080 [SAR 1:1 DAR 16:9], 3768 kb/s, 23.98 fps, 23.98 tbr, 24k tbn (default)
      Metadata:
        handler_name    : VideoHandler
        vendor_id       : [0][0][0][0]
        encoder         : Lavc60.31.102 h264_qsv
  Stream #1:1[0x2](und): Audio: aac (HE-AACv2) (mp4a / 0x6134706D), 48000 Hz, stereo, fltp, 144 kb/s (default)
      Metadata:
        handler_name    : SoundHandler
        vendor_id       : [0][0][0][0]
Stream mapping:
  Stream #0:0 (hevc) -> settb:default
  Stream #1:0 (h264) -> settb:default
  psnr:default -> Stream #0:0 (wrapped_avframe)
  Stream #0:1 -> #0:1 (aac (native) -> pcm_s16le (native))
Output #0, null, to 'pipe:':
  Metadata:
    COMPATIBLE_BRANDS: isomiso2avc1mp41
    MAJOR_BRAND     : isom
    MINOR_VERSION   : 512
    encoder         : Lavf61.7.100
  Stream #0:0: Video: wrapped_avframe, yuv420p10le(tv, bt709, progressive), 1920x1080 [SAR 1:1 DAR 16:9], q=2-31, 200 kb/s, 23.98 fps, 23.98 tbn
      Metadata:
        encoder         : Lavc61.19.100 wrapped_avframe
  Stream #0:1: Audio: pcm_s16le, 48000 Hz, stereo, s16, 1536 kb/s (default)
      Metadata:
        HANDLER_NAME    : SoundHandler
        VENDOR_ID       : [0][0][0][0]
        _STATISTICS_TAGS: BPS DURATION NUMBER_OF_FRAMES NUMBER_OF_BYTES
        BPS             : 192790
        DURATION        : 00:24:01.664000000
        NUMBER_OF_FRAMES: 67579
        NUMBER_OF_BYTES : 34742451
        _STATISTICS_WRITING_APP: mkvpropedit v66.0.0 ('Josie') 64-bit
        _STATISTICS_WRITING_DATE_UTC: 2025-05-24 11:20:15
        encoder         : Lavc61.19.100 pcm_s16le
frame=  193 fps=0.0 q=-0.0 size=N/A time=00:00:08.04 bitrate=N/A speed=15.4x    frame=  435 fps=422 q=-0.0 size=N/A time=00:00:18.14 bitrate=N/A speed=17.6x    frame=  673 fps=433 q=-0.0 size=N/A time=00:00:28.06 bitrate=N/A speed=18.1x    frame=  954 fps=463 q=-0.0 size=N/A time=00:00:39.78 bitrate=N/A speed=19.3x    frame= 1179 fps=458 q=-0.0 size=N/A time=00:00:49.17 bitrate=N/A speed=19.1x    frame= 1405 fps=453 q=-0.0 size=N/A time=00:00:58.60 bitrate=N/A speed=18.9x    frame= 1637 fps=454 q=-0.0 size=N/A time=00:01:08.27 bitrate=N/A speed=18.9x    frame= 1893 fps=460 q=-0.0 size=N/A time=00:01:18.95 bitrate=N/A speed=19.2x    frame= 2165 fps=466 q=-0.0 size=N/A time=00:01:30.29 bitrate=N/A speed=19.4x    frame= 2422 fps=470 q=-0.0 size=N/A time=00:01:41.01 bitrate=N/A speed=19.6x    frame= 2620 fps=462 q=-0.0 size=N/A time=00:01:49.27 bitrate=N/A speed=19.3x    frame= 2832 fps=457 q=-0.0 size=N/A time=00:01:58.11 bitrate=N/A speed=19.1x    frame= 3082 fps=460 q=-0.0 size=N/A time=00:02:08.54 bitrate=N/A speed=19.2x    frame= 3272 fps=454 q=-0.0 size=N/A time=00:02:16.46 bitrate=N/A speed=18.9x    frame= 3509 fps=453 q=-0.0 size=N/A time=00:02:26.35 bitrate=N/A speed=18.9x    frame= 3717 fps=450 q=-0.0 size=N/A time=00:02:35.02 bitrate=N/A speed=18.8x    frame= 3877 fps=443 q=-0.0 size=N/A time=00:02:41.70 bitrate=N/A speed=18.5x    frame= 4084 fps=440 q=-0.0 size=N/A time=00:02:50.33 bitrate=N/A speed=18.3x    frame= 4259 fps=435 q=-0.0 size=N/A time=00:02:57.63 bitrate=N/A speed=18.1x    frame= 4410 fps=428 q=-0.0 size=N/A time=00:03:03.93 bitrate=N/A speed=17.8x    frame= 4640 fps=428 q=-0.0 size=N/A time=00:03:13.52 bitrate=N/A speed=17.9x    frame= 4900 fps=432 q=-0.0 size=N/A time=00:03:24.37 bitrate=N/A speed=  18x    frame= 5182 fps=437 q=-0.0 size=N/A time=00:03:36.13 bitrate=N/A speed=18.2x    frame= 5475 fps=442 q=-0.0 size=N/A time=00:03:48.35 bitrate=N/A speed=18.4x    frame= 5748 fps=446 q=-0.0 size=N/A time=00:03:59.73 bitrate=N/A speed=18.6x    frame= 5970 fps=446 q=-0.0 size=N/A time=00:04:08.99 bitrate=N/A speed=18.6x    frame= 6232 fps=447 q=-0.0 size=N/A time=00:04:19.92 bitrate=N/A speed=18.7x    frame= 6474 fps=448 q=-0.0 size=N/A time=00:04:30.01 bitrate=N/A speed=18.7x    frame= 6697 fps=448 q=-0.0 size=N/A time=00:04:39.32 bitrate=N/A speed=18.7x    frame= 6980 fps=451 q=-0.0 size=N/A time=00:04:51.12 bitrate=N/A speed=18.8x    frame= 7242 fps=453 q=-0.0 size=N/A time=00:05:02.09 bitrate=N/A speed=18.9x    frame= 7488 fps=454 q=-0.0 size=N/A time=00:05:12.31 bitrate=N/A speed=18.9x    frame= 7740 fps=454 q=-0.0 size=N/A time=00:05:22.82 bitrate=N/A speed=  19x    frame= 8018 fps=457 q=-0.0 size=N/A time=00:05:34.41 bitrate=N/A speed=19.1x    frame= 8292 fps=459 q=-0.0 size=N/A time=00:05:45.84 bitrate=N/A speed=19.1x    frame= 8572 fps=461 q=-0.0 size=N/A time=00:05:57.52 bitrate=N/A speed=19.2x    frame= 8839 fps=463 q=-0.0 size=N/A time=00:06:08.65 bitrate=N/A speed=19.3x    frame= 9111 fps=464 q=-0.0 size=N/A time=00:06:20.00 bitrate=N/A speed=19.4x    frame= 9368 fps=465 q=-0.0 size=N/A time=00:06:30.72 bitrate=N/A speed=19.4x    frame= 9642 fps=467 q=-0.0 size=N/A time=00:06:42.15 bitrate=N/A speed=19.5x    frame= 9903 fps=468 q=-0.0 size=N/A time=00:06:53.03 bitrate=N/A speed=19.5x    frame=10171 fps=469 q=-0.0 size=N/A time=00:07:04.21 bitrate=N/A speed=19.6x    frame=10402 fps=469 q=-0.0 size=N/A time=00:07:13.85 bitrate=N/A speed=19.6x    frame=10627 fps=468 q=-0.0 size=N/A time=00:07:23.23 bitrate=N/A speed=19.5x    frame=10886 fps=469 q=-0.0 size=N/A time=00:07:34.03 bitrate=N/A speed=19.6x    frame=11152 fps=470 q=-0.0 size=N/A time=00:07:45.13 bitrate=N/A speed=19.6x    frame=11417 fps=471 q=-0.0 size=N/A time=00:07:56.18 bitrate=N/A speed=19.6x    frame=11706 fps=473 q=-0.0 size=N/A time=00:08:08.27 bitrate=N/A speed=19.7x    frame=11977 fps=474 q=-0.0 size=N/A time=00:08:19.54 bitrate=N/A speed=19.8x    frame=12250 fps=475 q=-0.0 size=N/A time=00:08:30.92 bitrate=N/A speed=19.8x    frame=12524 fps=476 q=-0.0 size=N/A time=00:08:42.35 bitrate=N/A speed=19.8x    frame=12787 fps=477 q=-0.0 size=N/A time=00:08:53.32 bitrate=N/A speed=19.9x    frame=13039 fps=477 q=-0.0 size=N/A time=00:09:03.83 bitrate=N/A speed=19.9x    frame=13275 fps=476 q=-0.0 size=N/A time=00:09:13.67 bitrate=N/A speed=19.9x    frame=13499 fps=476 q=-0.0 size=N/A time=00:09:23.02 bitrate=N/A speed=19.8x    frame=13712 fps=474 q=-0.0 size=N/A time=00:09:31.90 bitrate=N/A speed=19.8x    frame=13870 fps=471 q=-0.0 size=N/A time=00:09:38.49 bitrate=N/A speed=19.7x    frame=14069 fps=470 q=-0.0 size=N/A time=00:09:46.79 bitrate=N/A speed=19.6x    frame=14275 fps=469 q=-0.0 size=N/A time=00:09:55.38 bitrate=N/A speed=19.5x    frame=14480 fps=468 q=-0.0 size=N/A time=00:10:03.93 bitrate=N/A speed=19.5x    frame=14723 fps=468 q=-0.0 size=N/A time=00:10:14.07 bitrate=N/A speed=19.5x    frame=14962 fps=468 q=-0.0 size=N/A time=00:10:24.04 bitrate=N/A speed=19.5x    frame=15194 fps=467 q=-0.0 size=N/A time=00:10:33.71 bitrate=N/A speed=19.5x    frame=15435 fps=467 q=-0.0 size=N/A time=00:10:43.76 bitrate=N/A speed=19.5x    frame=15676 fps=467 q=-0.0 size=N/A time=00:10:53.81 bitrate=N/A speed=19.5x    frame=15884 fps=466 q=-0.0 size=N/A time=00:11:02.49 bitrate=N/A speed=19.4x    frame=16156 fps=467 q=-0.0 size=N/A time=00:11:13.83 bitrate=N/A speed=19.5x    frame=16403 fps=467 q=-0.0 size=N/A time=00:11:24.14 bitrate=N/A speed=19.5x    frame=16612 fps=466 q=-0.0 size=N/A time=00:11:32.85 bitrate=N/A speed=19.5x    frame=16885 fps=467 q=-0.0 size=N/A time=00:11:44.24 bitrate=N/A speed=19.5x    frame=17139 fps=468 q=-0.0 size=N/A time=00:11:54.83 bitrate=N/A speed=19.5x    frame=17428 fps=469 q=-0.0 size=N/A time=00:12:06.89 bitrate=N/A speed=19.6x    frame=17697 fps=470 q=-0.0 size=N/A time=00:12:18.11 bitrate=N/A speed=19.6x    frame=17859 fps=468 q=-0.0 size=N/A time=00:12:24.86 bitrate=N/A speed=19.5x    frame=18023 fps=466 q=-0.0 size=N/A time=00:12:31.70 bitrate=N/A speed=19.4x    frame=18237 fps=465 q=-0.0 size=N/A time=00:12:40.63 bitrate=N/A speed=19.4x    frame=18459 fps=464 q=-0.0 size=N/A time=00:12:49.89 bitrate=N/A speed=19.4x    frame=18672 fps=464 q=-0.0 size=N/A time=00:12:58.77 bitrate=N/A speed=19.3x    frame=18872 fps=463 q=-0.0 size=N/A time=00:13:07.11 bitrate=N/A speed=19.3x    frame=19107 fps=463 q=-0.0 size=N/A time=00:13:16.92 bitrate=N/A speed=19.3x    frame=19363 fps=463 q=-0.0 size=N/A time=00:13:27.59 bitrate=N/A speed=19.3x    frame=19614 fps=464 q=-0.0 size=N/A time=00:13:38.06 bitrate=N/A speed=19.3x    frame=19869 fps=464 q=-0.0 size=N/A time=00:13:48.70 bitrate=N/A speed=19.3x    frame=20142 fps=465 q=-0.0 size=N/A time=00:14:00.08 bitrate=N/A speed=19.4x    frame=20382 fps=465 q=-0.0 size=N/A time=00:14:10.09 bitrate=N/A speed=19.4x    frame=20631 fps=465 q=-0.0 size=N/A time=00:14:20.48 bitrate=N/A speed=19.4x    frame=20878 fps=465 q=-0.0 size=N/A time=00:14:30.78 bitrate=N/A speed=19.4x    frame=21092 fps=464 q=-0.0 size=N/A time=00:14:39.71 bitrate=N/A speed=19.4x    frame=21344 fps=465 q=-0.0 size=N/A time=00:14:50.22 bitrate=N/A speed=19.4x    frame=21605 fps=465 q=-0.0 size=N/A time=00:15:01.10 bitrate=N/A speed=19.4x    frame=21840 fps=465 q=-0.0 size=N/A time=00:15:10.91 bitrate=N/A speed=19.4x    frame=22064 fps=465 q=-0.0 size=N/A time=00:15:20.25 bitrate=N/A speed=19.4x    frame=22306 fps=465 q=-0.0 size=N/A time=00:15:30.34 bitrate=N/A speed=19.4x    frame=22464 fps=463 q=-0.0 size=N/A time=00:15:36.93 bitrate=N/A speed=19.3x    frame=22682 fps=463 q=-0.0 size=N/A time=00:15:46.02 bitrate=N/A speed=19.3x    frame=22903 fps=462 q=-0.0 size=N/A time=00:15:55.24 bitrate=N/A speed=19.3x    frame=23149 fps=462 q=-0.0 size=N/A time=00:16:05.50 bitrate=N/A speed=19.3x    frame=23417 fps=463 q=-0.0 size=N/A time=00:16:16.68 bitrate=N/A speed=19.3x    frame=23688 fps=464 q=-0.0 size=N/A time=00:16:27.98 bitrate=N/A speed=19.3x    frame=23968 fps=464 q=-0.0 size=N/A time=00:16:39.66 bitrate=N/A speed=19.4x    frame=24236 fps=465 q=-0.0 size=N/A time=00:16:50.84 bitrate=N/A speed=19.4x    frame=24527 fps=466 q=-0.0 size=N/A time=00:17:02.98 bitrate=N/A speed=19.4x    frame=24796 fps=466 q=-0.0 size=N/A time=00:17:14.19 bitrate=N/A speed=19.5x    frame=25050 fps=467 q=-0.0 size=N/A time=00:17:24.79 bitrate=N/A speed=19.5x    frame=25238 fps=466 q=-0.0 size=N/A time=00:17:32.63 bitrate=N/A speed=19.4x    frame=25430 fps=465 q=-0.0 size=N/A time=00:17:40.64 bitrate=N/A speed=19.4x    frame=25598 fps=464 q=-0.0 size=N/A time=00:17:47.64 bitrate=N/A speed=19.3x    frame=25733 fps=462 q=-0.0 size=N/A time=00:17:53.28 bitrate=N/A speed=19.3x    frame=25948 fps=461 q=-0.0 size=N/A time=00:18:02.24 bitrate=N/A speed=19.2x    frame=26153 fps=461 q=-0.0 size=N/A time=00:18:10.79 bitrate=N/A speed=19.2x    frame=26361 fps=460 q=-0.0 size=N/A time=00:18:19.47 bitrate=N/A speed=19.2x    frame=26551 fps=459 q=-0.0 size=N/A time=00:18:27.39 bitrate=N/A speed=19.2x    frame=26790 fps=459 q=-0.0 size=N/A time=00:18:37.36 bitrate=N/A speed=19.2x    frame=27035 fps=459 q=-0.0 size=N/A time=00:18:47.58 bitrate=N/A speed=19.2x    frame=27307 fps=460 q=-0.0 size=N/A time=00:18:58.92 bitrate=N/A speed=19.2x    frame=27576 fps=461 q=-0.0 size=N/A time=00:19:10.14 bitrate=N/A speed=19.2x    frame=27843 fps=461 q=-0.0 size=N/A time=00:19:21.28 bitrate=N/A speed=19.2x    frame=28116 fps=462 q=-0.0 size=N/A time=00:19:32.67 bitrate=N/A speed=19.3x    frame=28390 fps=462 q=-0.0 size=N/A time=00:19:44.09 bitrate=N/A speed=19.3x    frame=28581 fps=461 q=-0.0 size=N/A time=00:19:52.06 bitrate=N/A speed=19.2x    frame=28832 fps=462 q=-0.0 size=N/A time=00:20:02.53 bitrate=N/A speed=19.3x    frame=29095 fps=462 q=-0.0 size=N/A time=00:20:13.50 bitrate=N/A speed=19.3x    frame=29361 fps=462 q=-0.0 size=N/A time=00:20:24.59 bitrate=N/A speed=19.3x    frame=29594 fps=462 q=-0.0 size=N/A time=00:20:34.31 bitrate=N/A speed=19.3x    frame=29867 fps=463 q=-0.0 size=N/A time=00:20:45.70 bitrate=N/A speed=19.3x    frame=30143 fps=463 q=-0.0 size=N/A time=00:20:57.21 bitrate=N/A speed=19.3x    frame=30379 fps=463 q=-0.0 size=N/A time=00:21:07.05 bitrate=N/A speed=19.3x    frame=30623 fps=463 q=-0.0 size=N/A time=00:21:17.23 bitrate=N/A speed=19.3x    frame=30879 fps=464 q=-0.0 size=N/A time=00:21:27.91 bitrate=N/A speed=19.3x    frame=31135 fps=464 q=-0.0 size=N/A time=00:21:38.58 bitrate=N/A speed=19.4x    frame=31358 fps=464 q=-0.0 size=N/A time=00:21:47.88 bitrate=N/A speed=19.3x    frame=31574 fps=463 q=-0.0 size=N/A time=00:21:56.89 bitrate=N/A speed=19.3x    frame=31783 fps=463 q=-0.0 size=N/A time=00:22:05.61 bitrate=N/A speed=19.3x    frame=31962 fps=462 q=-0.0 size=N/A time=00:22:13.08 bitrate=N/A speed=19.3x    frame=32208 fps=462 q=-0.0 size=N/A time=00:22:23.34 bitrate=N/A speed=19.3x    frame=32484 fps=463 q=-0.0 size=N/A time=00:22:34.85 bitrate=N/A speed=19.3x    frame=32734 fps=463 q=-0.0 size=N/A time=00:22:45.28 bitrate=N/A speed=19.3x    frame=32986 fps=463 q=-0.0 size=N/A time=00:22:55.79 bitrate=N/A speed=19.3x    frame=33239 fps=463 q=-0.0 size=N/A time=00:23:06.34 bitrate=N/A speed=19.3x    frame=33478 fps=463 q=-0.0 size=N/A time=00:23:16.31 bitrate=N/A speed=19.3x    frame=33711 fps=463 q=-0.0 size=N/A time=00:23:26.02 bitrate=N/A speed=19.3x    frame=33962 fps=463 q=-0.0 size=N/A time=00:23:36.49 bitrate=N/A speed=19.3x    frame=34180 fps=463 q=-0.0 size=N/A time=00:23:45.59 bitrate=N/A speed=19.3x    frame=34460 fps=463 q=-0.0 size=N/A time=00:23:57.26 bitrate=N/A speed=19.3x    [Parsed_psnr_10 @ 00000291a5f66b00] PSNR y:47.887734 u:49.929633 v:49.587726 average:48.425682 min:41.027934 max:inf
[out#0/null @ 0000029198aa3b80] video:14851KiB audio:270316KiB subtitle:0KiB other streams:0KiB global headers:0KiB muxing overhead: unknown
frame=34562 fps=464 q=-0.0 Lsize=N/A time=00:24:01.52 bitrate=N/A speed=19.3x    
